<svg width="24" height="24" viewBox="0 0 24 24" fill="none" xmlns="http://www.w3.org/2000/svg">
<path d="M6.00018 9.00032C6.23383 8.99987 6.46027 9.08124 6.64018 9.23032L12.0002 13.7103L17.3702 9.39032C17.4725 9.30726 17.5902 9.24523 17.7165 9.2078C17.8428 9.17036 17.9753 9.15827 18.1064 9.17221C18.2374 9.18615 18.3644 9.22585 18.48 9.28902C18.5956 9.35219 18.6977 9.4376 18.7802 9.54032C18.8632 9.64261 18.9253 9.76031 18.9627 9.88665C19.0001 10.013 19.0122 10.1455 18.9983 10.2765C18.9844 10.4075 18.9447 10.5345 18.8815 10.6502C18.8183 10.7658 18.7329 10.8678 18.6302 10.9503L12.6302 15.7803C12.4512 15.9274 12.2268 16.0078 11.9952 16.0078C11.7636 16.0078 11.5391 15.9274 11.3602 15.7803L5.36018 10.7803C5.25892 10.6964 5.17522 10.5933 5.11387 10.4769C5.05252 10.3606 5.01472 10.2333 5.00264 10.1023C4.99057 9.97132 5.00445 9.83925 5.04349 9.71364C5.08254 9.58804 5.14598 9.47137 5.23018 9.37032C5.32323 9.25561 5.44054 9.16294 5.57368 9.09896C5.70682 9.03499 5.85247 9.0013 6.00018 9.00032Z" fill="#9A9A9A"/>
</svg>
