<svg width="24" height="24" viewBox="0 0 24 24" fill="none" xmlns="http://www.w3.org/2000/svg">
<path d="M17.9998 14.9997C17.7662 15.0001 17.5397 14.9188 17.3598 14.7697L11.9998 10.2897L6.62982 14.6097C6.52753 14.6927 6.40984 14.7548 6.2835 14.7922C6.15716 14.8296 6.02467 14.8417 5.89364 14.8278C5.76261 14.8139 5.63563 14.7742 5.51999 14.711C5.40435 14.6478 5.30234 14.5624 5.21982 14.4597C5.13675 14.3574 5.07472 14.2397 5.03729 14.1134C4.99986 13.987 4.98777 13.8545 5.0017 13.7235C5.01564 13.5925 5.05534 13.4655 5.11852 13.3498C5.18169 13.2342 5.26709 13.1322 5.36982 13.0497L11.3698 8.21968C11.5488 8.07259 11.7732 7.99219 12.0048 7.99219C12.2364 7.99219 12.4609 8.07259 12.6398 8.21968L18.6398 13.2197C18.7411 13.3036 18.8248 13.4067 18.8861 13.5231C18.9475 13.6394 18.9853 13.7667 18.9974 13.8977C19.0094 14.0287 18.9956 14.1608 18.9565 14.2864C18.9175 14.412 18.854 14.5286 18.7698 14.6297C18.6768 14.7444 18.5595 14.8371 18.4263 14.901C18.2932 14.965 18.1475 14.9987 17.9998 14.9997Z" fill="#9A9A9A"/>
</svg>
