<svg width="24" height="24" viewBox="0 0 24 24" fill="none" xmlns="http://www.w3.org/2000/svg">
<path d="M7.90896 10.2906L7.3667 11.2299L10.6397 13.1195L11.182 12.1803L7.90896 10.2906Z" fill="#C86F4C"/>
<path d="M7.05804 6.19186L7.39575 7.03491L10.4324 5.81849L10.0947 4.97543L7.05804 6.19186Z" fill="#C86F4C"/>
<path d="M12.5782 6.97286C12.0136 6.97286 11.4616 6.80553 10.992 6.49201C10.5224 6.17849 10.1562 5.73284 9.93974 5.21134C9.72326 4.68985 9.66617 4.11589 9.77569 3.56197C9.8852 3.00805 10.1564 2.49901 10.5551 2.09913C10.9537 1.69925 11.4619 1.42647 12.0155 1.31525C12.5691 1.20403 13.1432 1.25934 13.6654 1.47422C14.1875 1.68909 14.6343 2.05388 14.9493 2.52251C15.2642 2.99115 15.4333 3.54261 15.435 4.10725C15.4362 4.48315 15.3631 4.85559 15.2201 5.20321C15.077 5.55083 14.8668 5.8668 14.6014 6.13301C14.336 6.39922 14.0207 6.61044 13.6735 6.75456C13.3263 6.89868 12.9541 6.97286 12.5782 6.97286ZM12.5782 1.68251C12.1025 1.68078 11.637 1.82004 11.2404 2.0827C10.8437 2.34536 10.5339 2.71965 10.3498 3.15831C10.1658 3.59697 10.1158 4.08032 10.2063 4.54734C10.2967 5.01437 10.5235 5.44411 10.8581 5.78233C11.1926 6.12054 11.6198 6.35205 12.0858 6.44763C12.5518 6.54321 13.0357 6.49856 13.4764 6.31934C13.917 6.14012 14.2947 5.83435 14.5617 5.44064C14.8287 5.04693 14.973 4.58294 14.9765 4.10725C14.9719 3.47261 14.7177 2.86527 14.269 2.4165C13.8202 1.96773 13.2129 1.71357 12.5782 1.70896V1.68251Z" fill="#C86F4C"/>
<path d="M12.578 4.37181C11.9076 4.3718 11.2551 4.58828 10.7176 4.98902C10.7098 4.99642 10.7037 5.00532 10.6995 5.01517C10.6953 5.02502 10.6931 5.03562 10.6931 5.04633C10.6931 5.05704 10.6953 5.06764 10.6995 5.07749C10.7037 5.08734 10.7098 5.09623 10.7176 5.10364C10.8922 5.45476 11.1613 5.75019 11.4946 5.95671C11.828 6.16323 12.2123 6.27264 12.6045 6.27264C12.9966 6.27264 13.381 6.16323 13.7143 5.95671C14.0477 5.75019 14.3168 5.45476 14.4914 5.10364C14.505 5.08767 14.5125 5.06734 14.5125 5.04633C14.5125 5.02531 14.505 5.00499 14.4914 4.98902C13.9388 4.57849 13.2663 4.36156 12.578 4.37181Z" fill="#C86F4C"/>
<path d="M12.5781 4.01031C13.0358 4.01031 13.4069 3.63923 13.4069 3.18148C13.4069 2.72374 13.0358 2.35266 12.5781 2.35266C12.1203 2.35266 11.7493 2.72374 11.7493 3.18148C11.7493 3.63923 12.1203 4.01031 12.5781 4.01031Z" fill="#C86F4C"/>
<path d="M4.49261 12.9863C3.70592 12.9793 2.93888 12.7397 2.28814 12.2975C1.6374 11.8554 1.13207 11.2306 0.835826 10.5017C0.539581 9.77292 0.465672 8.97272 0.623409 8.20196C0.781146 7.43121 1.16347 6.72438 1.72222 6.17054C2.28097 5.61669 2.99114 5.24061 3.76325 5.08967C4.53536 4.93872 5.33488 5.01968 6.06106 5.32234C6.78725 5.62499 7.40761 6.1358 7.84399 6.79041C8.28038 7.44502 8.51325 8.21414 8.51328 9.00087C8.51213 9.52689 8.40709 10.0475 8.20419 10.5328C8.00129 11.0181 7.70453 11.4586 7.33094 11.8289C6.95736 12.1992 6.5143 12.4921 6.02722 12.6907C5.54014 12.8893 5.01862 12.9898 4.49261 12.9863ZM4.49261 5.65031C3.82744 5.64857 3.17673 5.84433 2.62293 6.21279C2.06914 6.58126 1.63719 7.10583 1.38184 7.72003C1.12648 8.33424 1.05921 9.01042 1.18855 9.6629C1.31789 10.3154 1.63802 10.9148 2.10837 11.3851C2.57872 11.8555 3.17811 12.1756 3.83059 12.3049C4.48306 12.4343 5.15925 12.367 5.77345 12.1116C6.38766 11.8563 6.91223 11.4243 7.28069 10.8706C7.64915 10.3168 7.84492 9.66604 7.84317 9.00087C7.84317 8.56087 7.75651 8.12518 7.58813 7.71867C7.41974 7.31216 7.17294 6.9428 6.86182 6.63167C6.55069 6.32054 6.18133 6.07374 5.77482 5.90536C5.36831 5.73698 4.93262 5.65031 4.49261 5.65031Z" fill="#C86F4C"/>
<path d="M4.4925 9.39765C3.55599 9.40463 2.64677 9.71389 1.90023 10.2794C1.88157 10.3016 1.87134 10.3297 1.87134 10.3587C1.87134 10.3878 1.88157 10.4159 1.90023 10.4381C2.14251 10.9332 2.51887 11.3503 2.98649 11.6421C3.45411 11.9338 3.99423 12.0885 4.5454 12.0885C5.09658 12.0885 5.63669 11.9338 6.10432 11.6421C6.57194 11.3503 6.94829 10.9332 7.19058 10.4381C7.20775 10.4152 7.21703 10.3873 7.21703 10.3587C7.21703 10.3301 7.20775 10.3023 7.19058 10.2794C6.41302 9.69606 5.46447 9.38608 4.4925 9.39765Z" fill="#C86F4C"/>
<path d="M4.49246 8.8598C5.13039 8.8598 5.64752 8.34267 5.64752 7.70474C5.64752 7.06682 5.13039 6.54968 4.49246 6.54968C3.85454 6.54968 3.3374 7.06682 3.3374 7.70474C3.3374 8.34267 3.85454 8.8598 4.49246 8.8598Z" fill="#C86F4C"/>
<path d="M16.1844 22.2532C14.8364 22.2532 13.5186 21.8534 12.3978 21.1045C11.2769 20.3556 10.4033 19.2911 9.88747 18.0457C9.37161 16.8003 9.23663 15.4299 9.49962 14.1078C9.7626 12.7856 10.4117 11.5712 11.3649 10.618C12.3181 9.66479 13.5326 9.01566 14.8547 8.75267C16.1768 8.48968 17.5473 8.62466 18.7927 9.14052C20.0381 9.65639 21.1026 10.53 21.8515 11.6508C22.6004 12.7717 23.0001 14.0894 23.0001 15.4374C22.9978 17.2444 22.279 18.9766 21.0013 20.2543C19.7236 21.532 17.9913 22.2509 16.1844 22.2532ZM16.1844 9.69741C15.0488 9.69567 13.9381 10.0308 12.993 10.6605C12.0479 11.2902 11.3108 12.186 10.875 13.2347C10.4392 14.2834 10.3243 15.4378 10.5448 16.5519C10.7652 17.6659 11.3112 18.6895 12.1136 19.4931C12.916 20.2968 13.9388 20.8443 15.0525 21.0665C16.1662 21.2887 17.3208 21.1756 18.3702 20.7414C19.4195 20.3072 20.3165 19.5715 20.9476 18.6274C21.5787 17.6832 21.9156 16.5731 21.9156 15.4374C21.9133 13.9173 21.309 12.46 20.2349 11.3843C19.1609 10.3086 17.7045 9.70207 16.1844 9.69741Z" fill="#C86F4C"/>
<path d="M16.1844 16.037C14.5988 16.0485 13.0568 16.5574 11.7757 17.4919C11.7353 17.5232 11.7071 17.5676 11.6958 17.6174C11.6846 17.6673 11.691 17.7195 11.714 17.7652C12.1302 18.6031 12.7721 19.3083 13.5673 19.8012C14.3625 20.2942 15.2796 20.5554 16.2152 20.5554C17.1508 20.5554 18.0679 20.2942 18.8631 19.8012C19.6584 19.3083 20.3002 18.6031 20.7164 17.7652C20.7412 17.7199 20.7487 17.6672 20.7373 17.6168C20.7259 17.5665 20.6966 17.522 20.6547 17.4919C19.3575 16.5434 17.7914 16.0337 16.1844 16.037Z" fill="#C86F4C"/>
<path d="M16.1843 15.1817C17.2751 15.1817 18.1594 14.2974 18.1594 13.2066C18.1594 12.1158 17.2751 11.2316 16.1843 11.2316C15.0935 11.2316 14.2092 12.1158 14.2092 13.2066C14.2092 14.2974 15.0935 15.1817 16.1843 15.1817Z" fill="#C86F4C"/>
</svg>
