<svg width="46" height="26" viewBox="0 0 46 26" fill="none" xmlns="http://www.w3.org/2000/svg">
<path d="M45.4243 22.1612C43.8092 11.0343 34.3271 0.96582 24.062 0.96582H21.4636C11.1989 0.96582 1.90977 11.0343 0.294757 22.1612C0.00154755 24.1829 0.179596 26.0002 2.17586 26.0002H10.3028C10.6015 26.0002 11.0327 25.8409 11.2606 25.6425C13.9062 23.3403 17.4302 17.4191 18.9344 15.4907C18.9344 15.4907 22.4478 8.72323 29.3276 8.72323C35.8104 8.72323 37.1943 15.469 37.2619 17.7905C37.2694 18.0513 37.2478 18.6984 37.0678 18.8827C35.7806 20.2006 36.1194 20.5704 26.1892 20.5704C24.5592 20.5704 22.5488 22.692 21.4306 24.4546C21.0081 25.1206 20.7019 25.9998 21.4778 25.9998H43.5435C45.5398 25.9998 45.7179 24.1821 45.4246 22.1608L45.4243 22.1612Z" fill="#FF8339"/>
<path d="M28.9887 15.9864C30.0042 15.9864 30.8274 15.1457 30.8274 14.1088C30.8274 13.0718 30.0042 12.2312 28.9887 12.2312C27.9733 12.2312 27.1501 13.0718 27.1501 14.1088C27.1501 15.1457 27.9733 15.9864 28.9887 15.9864Z" fill="#FF8339"/>
</svg>
