<svg width="24" height="24" viewBox="0 0 24 24" fill="none" xmlns="http://www.w3.org/2000/svg">
<path d="M2.3999 5.99998C2.3999 5.36346 2.65276 4.75301 3.10285 4.30292C3.55293 3.85283 4.16338 3.59998 4.7999 3.59998H19.1999C19.8364 3.59998 20.4469 3.85283 20.897 4.30292C21.347 4.75301 21.5999 5.36346 21.5999 5.99998V9.77518C21.2382 9.45136 20.8346 9.1777 20.3999 8.96158V5.99998C20.3999 5.68172 20.2735 5.37649 20.0484 5.15145C19.8234 4.9264 19.5182 4.79998 19.1999 4.79998H4.7999C4.48164 4.79998 4.17642 4.9264 3.95137 5.15145C3.72633 5.37649 3.5999 5.68172 3.5999 5.99998V15.6C3.5999 15.9182 3.72633 16.2235 3.95137 16.4485C4.17642 16.6735 4.48164 16.8 4.7999 16.8H13.5095C13.6007 16.9356 13.6979 17.0676 13.7999 17.1948V18H4.7999C4.16338 18 3.55293 17.7471 3.10285 17.297C2.65276 16.8469 2.3999 16.2365 2.3999 15.6V5.99998Z" fill="#C86F4C"/>
<path d="M22.1998 13.8C22.1998 14.9448 21.7426 15.9816 20.9998 16.74V21.6C20.9998 21.7114 20.9688 21.8206 20.9102 21.9154C20.8516 22.0102 20.7678 22.0868 20.6681 22.1366C20.5685 22.1865 20.4569 22.2076 20.3459 22.1976C20.2349 22.1875 20.1289 22.1468 20.0398 22.08L18.3598 20.82C18.2559 20.7421 18.1296 20.7 17.9998 20.7C17.87 20.7 17.7437 20.7421 17.6398 20.82L15.9598 22.08C15.8707 22.1468 15.7647 22.1875 15.6537 22.1976C15.5427 22.2076 15.4311 22.1865 15.3315 22.1366C15.2318 22.0868 15.148 22.0102 15.0894 21.9154C15.0308 21.8206 14.9998 21.7114 14.9998 21.6V16.74C14.5177 16.2479 14.164 15.6449 13.97 14.9839C13.7759 14.323 13.7473 13.6244 13.8869 12.9499C14.0264 12.2753 14.3297 11.6454 14.7701 11.1157C15.2104 10.5859 15.7743 10.1727 16.4121 9.91226C17.0498 9.65185 17.7418 9.5523 18.4271 9.62238C19.1124 9.69246 19.7699 9.93002 20.3417 10.3141C20.9135 10.6982 21.3821 11.2171 21.7061 11.825C22.0302 12.4329 22.1997 13.1111 22.1998 13.8ZM17.9998 18C17.3554 18 16.7458 17.856 16.1998 17.5956V20.1L17.6914 19.2048C17.7846 19.1489 17.8912 19.1194 17.9998 19.1194C18.1084 19.1194 18.215 19.1489 18.3082 19.2048L19.7998 20.1V17.5956C19.2374 17.8626 18.6224 18.0008 17.9998 18ZM17.9998 16.8C18.7955 16.8 19.5585 16.4839 20.1211 15.9213C20.6837 15.3587 20.9998 14.5956 20.9998 13.8C20.9998 13.0043 20.6837 12.2413 20.1211 11.6787C19.5585 11.116 18.7955 10.8 17.9998 10.8C17.2042 10.8 16.4411 11.116 15.8785 11.6787C15.3159 12.2413 14.9998 13.0043 14.9998 13.8C14.9998 14.5956 15.3159 15.3587 15.8785 15.9213C16.4411 16.4839 17.2042 16.8 17.9998 16.8Z" fill="#C86F4C"/>
<path d="M6 7.79995C6 7.64082 6.06321 7.48821 6.17574 7.37569C6.28826 7.26317 6.44087 7.19995 6.6 7.19995H17.4C17.5591 7.19995 17.7117 7.26317 17.8243 7.37569C17.9368 7.48821 18 7.64082 18 7.79995C18 7.95908 17.9368 8.11169 17.8243 8.22422C17.7117 8.33674 17.5591 8.39995 17.4 8.39995H6.6C6.44087 8.39995 6.28826 8.33674 6.17574 8.22422C6.06321 8.11169 6 7.95908 6 7.79995Z" fill="#C86F4C"/>
<path d="M6.6 13.2C6.44087 13.2 6.28826 13.2632 6.17574 13.3757C6.06321 13.4882 6 13.6408 6 13.8C6 13.9591 6.06321 14.1117 6.17574 14.2242C6.28826 14.3367 6.44087 14.4 6.6 14.4H11.4C11.5591 14.4 11.7117 14.3367 11.8243 14.2242C11.9368 14.1117 12 13.9591 12 13.8C12 13.6408 11.9368 13.4882 11.8243 13.3757C11.7117 13.2632 11.5591 13.2 11.4 13.2H6.6Z" fill="#C86F4C"/>
</svg>
