<svg width="16" height="12" viewBox="0 0 16 12" fill="none" xmlns="http://www.w3.org/2000/svg">
<path fill-rule="evenodd" clip-rule="evenodd" d="M2.6665 1.6667H5.99984C6.73622 1.6667 7.33317 2.26365 7.33317 3.00002V8.99998C7.33317 9.36817 7.03469 9.66665 6.6665 9.66665H2.6665C2.29831 9.66665 1.99984 9.36817 1.99984 8.99998V2.33336C1.99984 1.96517 2.29831 1.6667 2.6665 1.6667ZM9.33317 11C9.09941 11 8.87502 10.9599 8.6665 10.8862V11C8.6665 11.3682 8.36803 11.6666 7.99984 11.6666C7.63165 11.6666 7.33317 11.3682 7.33317 11V10.8862C7.12465 10.9599 6.90026 11 6.6665 11H2.6665C1.56193 11 0.666504 10.1045 0.666504 8.99998V2.33336C0.666504 1.2288 1.56193 0.333374 2.6665 0.333374H5.99984C6.7963 0.333374 7.51121 0.682542 7.99984 1.23615C8.48847 0.682542 9.20337 0.333374 9.99984 0.333374H13.3332C14.4377 0.333374 15.3332 1.2288 15.3332 2.33336V8.99998C15.3332 10.1045 14.4377 11 13.3332 11H9.33317ZM8.6665 3.00002V8.99998C8.6665 9.36817 8.96498 9.66665 9.33317 9.66665H13.3332C13.7014 9.66665 13.9998 9.36817 13.9998 8.99998V2.33336C13.9998 1.96517 13.7014 1.6667 13.3332 1.6667H9.99984C9.26346 1.6667 8.6665 2.26365 8.6665 3.00002ZM3.33317 3.00002H5.99984V4.33335H3.33317V3.00002ZM9.99984 3.00002H12.6665V4.33335H9.99984V3.00002ZM12.6665 5.00001H9.99984V6.33333H12.6665V5.00001ZM3.33317 5.00001H5.99984V6.33333H3.33317V5.00001ZM12.6665 7H9.99984V8.33332H12.6665V7ZM3.33317 7H5.99984V8.33332H3.33317V7Z" fill="white"/>
</svg>
