<svg xmlns="http://www.w3.org/2000/svg" width="18" height="18" viewBox="0 0 18 18">
  <g id="Group_990" data-name="Group 990" transform="translate(-483 -1423)">
    <g id="Ellipse_960" data-name="Ellipse 960" transform="translate(483 1423)" fill="#fff" stroke="#e8e8e8" stroke-width="1">
      <circle cx="9" cy="9" r="9" stroke="none"/>
      <circle cx="9" cy="9" r="8.5" fill="none"/>
    </g>
    <path id="student" d="M8.716,6.264a.272.272,0,0,1-.545,0V2.681l-3,1.507a1.789,1.789,0,0,1-.809.17,1.789,1.789,0,0,1-.809-.17L.332,2.579Q0,2.409,0,2.175t.332-.4L3.549.17A1.789,1.789,0,0,1,4.358,0a1.789,1.789,0,0,1,.809.17L8.384,1.779a.517.517,0,0,1,.323.358.05.05,0,0,1,.008.034V6.265ZM5.439,4.732l1.643-.826v1.2q0,.366-.8.626a6.265,6.265,0,0,1-1.928.26,6.265,6.265,0,0,1-1.928-.26q-.8-.26-.8-.626v-1.2l1.643.826a2.556,2.556,0,0,0,1.081.17A2.556,2.556,0,0,0,5.439,4.732Z" transform="translate(487.642 1428.473)" fill="#08aca5"/>
  </g>
</svg>
