<svg width="24" height="24" viewBox="0 0 24 24" fill="none" xmlns="http://www.w3.org/2000/svg">
<rect width="24" height="24" fill="white" fill-opacity="0.01"/>
<path fill-rule="evenodd" clip-rule="evenodd" d="M7.73574 5.89829V4.9322C7.73574 3.86949 8.57198 3 9.6036 3H15.2072C16.2388 3 17.0751 3.86949 17.0751 4.9322V5.89829H19.8769C20.3927 5.89829 20.8108 6.33304 20.8108 6.86439C20.8108 7.39574 20.3927 7.83049 19.8769 7.83049H18.9429V18.4576C18.9429 20.0613 17.6886 21.3559 16.1411 21.3559H8.66967C7.12223 21.3559 5.86787 20.0613 5.86787 18.4576V7.83049H4.93393C4.41812 7.83049 4 7.39574 4 6.86439C4 6.33304 4.41812 5.89829 4.93393 5.89829H7.73574ZM9.6036 4.9322H15.2072V5.89829H9.6036V4.9322ZM7.73574 7.83049H17.0751V18.4576C17.0751 18.9889 16.657 19.4237 16.1411 19.4237H8.66967C8.15386 19.4237 7.73574 18.9889 7.73574 18.4576V7.83049Z" fill="#333333"/>
</svg>
