<svg width="24" height="24" viewBox="0 0 24 24" fill="none" xmlns="http://www.w3.org/2000/svg">
<path d="M20.25 3.9375H3.75C3.40203 3.9379 3.06842 4.07631 2.82236 4.32236C2.57631 4.56842 2.4379 4.90203 2.4375 5.25V18.7501C2.4375 18.9225 2.47145 19.0931 2.53742 19.2524C2.60339 19.4116 2.70007 19.5563 2.82196 19.6782C2.94385 19.8 3.08855 19.8967 3.2478 19.9627C3.40705 20.0286 3.57773 20.0625 3.75009 20.0625L5.00541 20.0624C5.11178 20.0624 5.21596 20.0322 5.30586 19.9753C5.39577 19.9185 5.46771 19.8373 5.51334 19.7412C5.89382 18.9397 6.49386 18.2625 7.24378 17.7884C7.99371 17.3142 8.86275 17.0626 9.75 17.0626C10.6372 17.0626 11.5063 17.3142 12.2562 17.7884C13.0061 18.2625 13.6062 18.9397 13.9867 19.7412C14.0323 19.8373 14.1043 19.9186 14.1942 19.9754C14.2841 20.0323 14.3884 20.0624 14.4948 20.0624L20.25 20.0625C20.598 20.0621 20.9316 19.9237 21.1776 19.6776C21.4237 19.4316 21.5621 19.098 21.5625 18.75V5.25C21.5621 4.90203 21.4237 4.56842 21.1776 4.32236C20.9316 4.07631 20.598 3.9379 20.25 3.9375ZM7.3125 13.5C7.3125 13.0179 7.45546 12.5466 7.72329 12.1458C7.99113 11.745 8.37181 11.4325 8.81721 11.248C9.2626 11.0636 9.7527 11.0153 10.2255 11.1093C10.6984 11.2034 11.1327 11.4355 11.4736 11.7764C11.8145 12.1173 12.0466 12.5516 12.1407 13.0245C12.2347 13.4973 12.1864 13.9874 12.002 14.4328C11.8175 14.8782 11.505 15.2589 11.1042 15.5267C10.7034 15.7945 10.2321 15.9375 9.75 15.9375C9.10376 15.9368 8.48421 15.6797 8.02725 15.2228C7.57029 14.7658 7.31324 14.1462 7.3125 13.5ZM20.4375 18.75C20.4375 18.7997 20.4177 18.8474 20.3825 18.8825C20.3474 18.9177 20.2997 18.9375 20.25 18.9375L14.8377 18.9374C14.1816 17.7603 13.1391 16.846 11.8865 16.349C12.4849 15.9005 12.927 15.2751 13.1502 14.5613C13.3734 13.8476 13.3663 13.0817 13.1299 12.3722C12.8936 11.6627 12.44 11.0456 11.8334 10.6083C11.2267 10.171 10.4979 9.93566 9.75005 9.93566C9.00223 9.93566 8.27337 10.171 7.66674 10.6083C7.06012 11.0456 6.6065 11.6627 6.37015 12.3722C6.1338 13.0817 6.12672 13.8476 6.34989 14.5613C6.57307 15.2751 7.0152 15.9005 7.61362 16.349C6.36104 16.846 5.31854 17.7604 4.66237 18.9374L3.74991 18.9375C3.70021 18.9375 3.65256 18.9177 3.61742 18.8826C3.58228 18.8474 3.56252 18.7998 3.5625 18.7501V5.25C3.56255 5.20029 3.58232 5.15262 3.61747 5.11747C3.65262 5.08232 3.70029 5.06255 3.75 5.0625H20.25C20.2997 5.06255 20.3474 5.08232 20.3825 5.11747C20.4177 5.15262 20.4375 5.20029 20.4375 5.25V18.75ZM18.5625 7.5V16.5C18.5625 16.6492 18.5032 16.7923 18.3977 16.8977C18.2923 17.0032 18.1492 17.0625 18 17.0625H16.5C16.3508 17.0625 16.2077 17.0032 16.1023 16.8977C15.9968 16.7923 15.9375 16.6492 15.9375 16.5C15.9375 16.3508 15.9968 16.2077 16.1023 16.1023C16.2077 15.9968 16.3508 15.9375 16.5 15.9375H17.4375V8.0625H6.5625V9C6.5625 9.14918 6.50324 9.29226 6.39775 9.39775C6.29226 9.50324 6.14918 9.5625 6 9.5625C5.85082 9.5625 5.70774 9.50324 5.60225 9.39775C5.49676 9.29226 5.4375 9.14918 5.4375 9V7.5C5.4375 7.35082 5.49676 7.20774 5.60225 7.10225C5.70774 6.99676 5.85082 6.9375 6 6.9375H18C18.1492 6.9375 18.2923 6.99676 18.3977 7.10225C18.5032 7.20774 18.5625 7.35082 18.5625 7.5Z" fill="#C86F4C"/>
</svg>
