<svg width="24" height="24" viewBox="0 0 24 24" fill="none" xmlns="http://www.w3.org/2000/svg">
<path d="M11.2248 9.42482C11.3375 9.31216 11.4008 9.15936 11.4008 9.00002C11.4008 8.84069 11.3375 8.68789 11.2248 8.57522C11.1122 8.46256 10.9594 8.39927 10.8 8.39927C10.6407 8.39927 10.4879 8.46256 10.3752 8.57522L8.68085 10.2696L8.20445 9.83522C8.08608 9.73405 7.93301 9.68286 7.77759 9.69246C7.62218 9.70207 7.47658 9.77172 7.37157 9.8867C7.26656 10.0017 7.21037 10.153 7.21486 10.3086C7.21935 10.4643 7.28418 10.6121 7.39565 10.7208L8.29565 11.5428C8.40968 11.6466 8.55932 11.7026 8.71349 11.699C8.86767 11.6954 9.01455 11.6326 9.12365 11.5236L11.2236 9.42362L11.2248 9.42482ZM11.2248 14.5752C11.2807 14.631 11.3251 14.6972 11.3553 14.7701C11.3856 14.843 11.4011 14.9211 11.4011 15C11.4011 15.0789 11.3856 15.1571 11.3553 15.23C11.3251 15.3029 11.2807 15.3691 11.2248 15.4248L9.12485 17.5248C9.01554 17.634 8.86832 17.6968 8.71386 17.7002C8.5594 17.7035 8.4096 17.6472 8.29565 17.5428L7.39565 16.7208C7.28418 16.6121 7.21935 16.4643 7.21486 16.3086C7.21037 16.153 7.26656 16.0017 7.37157 15.8867C7.47658 15.7717 7.62218 15.7021 7.77759 15.6925C7.93301 15.6829 8.08608 15.7341 8.20445 15.8352L8.68085 16.2708L10.3752 14.5752C10.431 14.5193 10.4972 14.475 10.5701 14.4448C10.643 14.4145 10.7211 14.399 10.8 14.399C10.879 14.399 10.9571 14.4145 11.03 14.4448C11.1029 14.475 11.1691 14.5193 11.2248 14.5752ZM13.2 15.6C13.0409 15.6 12.8883 15.6632 12.7758 15.7758C12.6633 15.8883 12.6 16.0409 12.6 16.2C12.6 16.3592 12.6633 16.5118 12.7758 16.6243C12.8883 16.7368 13.0409 16.8 13.2 16.8H16.2C16.3592 16.8 16.5118 16.7368 16.6243 16.6243C16.7368 16.5118 16.8 16.3592 16.8 16.2C16.8 16.0409 16.7368 15.8883 16.6243 15.7758C16.5118 15.6632 16.3592 15.6 16.2 15.6H13.2ZM12.6 10.2C12.6 10.0409 12.6633 9.88828 12.7758 9.77576C12.8883 9.66324 13.0409 9.60002 13.2 9.60002H16.2C16.3592 9.60002 16.5118 9.66324 16.6243 9.77576C16.7368 9.88828 16.8 10.0409 16.8 10.2C16.8 10.3592 16.7368 10.5118 16.6243 10.6243C16.5118 10.7368 16.3592 10.8 16.2 10.8H13.2C13.0409 10.8 12.8883 10.7368 12.7758 10.6243C12.6633 10.5118 12.6 10.3592 12.6 10.2ZM10.2 2.40002C9.82766 2.39983 9.46437 2.51514 9.16026 2.73006C8.85615 2.94498 8.62618 3.24893 8.50205 3.60002H6.60005C6.12266 3.60002 5.66482 3.78967 5.32726 4.12723C4.98969 4.4648 4.80005 4.92264 4.80005 5.40002V19.8C4.80005 20.2774 4.98969 20.7353 5.32726 21.0728C5.66482 21.4104 6.12266 21.6 6.60005 21.6H17.4C17.8774 21.6 18.3353 21.4104 18.6728 21.0728C19.0104 20.7353 19.2 20.2774 19.2 19.8V5.40002C19.2 4.92264 19.0104 4.4648 18.6728 4.12723C18.3353 3.78967 17.8774 3.60002 17.4 3.60002H15.498C15.3739 3.24893 15.144 2.94498 14.8398 2.73006C14.5357 2.51514 14.1724 2.39983 13.8 2.40002H10.2ZM9.60005 4.20002C9.60005 4.04089 9.66326 3.88828 9.77578 3.77576C9.88831 3.66324 10.0409 3.60002 10.2 3.60002H13.8C13.9592 3.60002 14.1118 3.66324 14.2243 3.77576C14.3368 3.88828 14.4 4.04089 14.4 4.20002C14.4 4.35915 14.3368 4.51177 14.2243 4.62429C14.1118 4.73681 13.9592 4.80002 13.8 4.80002H10.2C10.0409 4.80002 9.88831 4.73681 9.77578 4.62429C9.66326 4.51177 9.60005 4.35915 9.60005 4.20002ZM6.60005 4.80002H8.50205C8.62618 5.15112 8.85615 5.45507 9.16026 5.66999C9.46437 5.88491 9.82766 6.00022 10.2 6.00002H13.8C14.1724 6.00022 14.5357 5.88491 14.8398 5.66999C15.144 5.45507 15.3739 5.15112 15.498 4.80002H17.4C17.5592 4.80002 17.7118 4.86324 17.8243 4.97576C17.9368 5.08828 18 5.24089 18 5.40002V19.8C18 19.9592 17.9368 20.1118 17.8243 20.2243C17.7118 20.3368 17.5592 20.4 17.4 20.4H6.60005C6.44092 20.4 6.28831 20.3368 6.17578 20.2243C6.06326 20.1118 6.00005 19.9592 6.00005 19.8V5.40002C6.00005 5.24089 6.06326 5.08828 6.17578 4.97576C6.28831 4.86324 6.44092 4.80002 6.60005 4.80002Z" fill="#C86F4C"/>
</svg>
