<svg width="24" height="24" viewBox="0 0 24 24" fill="none" xmlns="http://www.w3.org/2000/svg">
<path d="M4.21519 4.6C4.21519 4.44087 4.15118 4.28826 4.03723 4.17574C3.92328 4.06321 3.76874 4 3.60759 4C3.44645 4 3.29191 4.06321 3.17796 4.17574C3.06401 4.28826 3 4.44087 3 4.6V19.4C3 19.7312 3.2722 20 3.60759 20H18.3924C18.5535 20 18.7081 19.9368 18.822 19.8243C18.936 19.7117 19 19.5591 19 19.4C19 19.2409 18.936 19.0883 18.822 18.9757C18.7081 18.8632 18.5535 18.8 18.3924 18.8H4.21519V4.6Z" fill="#C86F4C"/>
<path d="M19.8434 8.92937C19.9465 8.82461 20.0026 8.68605 19.9999 8.54288C19.9972 8.39971 19.936 8.26311 19.8291 8.16186C19.7223 8.06061 19.5781 8.00261 19.427 8.00009C19.2758 7.99756 19.1296 8.0507 19.019 8.14832L14.5701 12.3631L11.6768 9.622C11.5674 9.51851 11.4191 9.46039 11.2646 9.46039C11.11 9.46039 10.9617 9.51851 10.8523 9.622L6.18566 14.0431C6.12835 14.0937 6.08238 14.1547 6.0505 14.2225C6.01862 14.2902 6.00147 14.3634 6.00009 14.4376C5.99871 14.5118 6.01312 14.5855 6.04246 14.6543C6.07179 14.7232 6.11546 14.7857 6.17085 14.8381C6.22625 14.8906 6.29223 14.932 6.36486 14.9598C6.4375 14.9876 6.5153 15.0012 6.59362 14.9999C6.67195 14.9986 6.74919 14.9824 6.82075 14.9522C6.8923 14.922 6.9567 14.8784 7.01011 14.8241L11.2646 10.7936L14.1579 13.5346C14.2673 13.6381 14.4155 13.6963 14.5701 13.6963C14.7247 13.6963 14.873 13.6381 14.9823 13.5346L19.8434 8.92937Z" fill="#C86F4C"/>
</svg>
