<svg width="24" height="24" viewBox="0 0 24 24" fill="none" xmlns="http://www.w3.org/2000/svg">
<path d="M12.5999 3.00002C12.5999 2.84089 12.5367 2.68828 12.4242 2.57576C12.3116 2.46324 12.159 2.40002 11.9999 2.40002C11.8408 2.40002 11.6882 2.46324 11.5756 2.57576C11.4631 2.68828 11.3999 2.84089 11.3999 3.00002V3.60002H5.6999C4.82469 3.60002 3.98532 3.9477 3.36645 4.56657C2.74758 5.18544 2.3999 6.02481 2.3999 6.90002V14.7024C2.3999 15.5776 2.74758 16.417 3.36645 17.0359C3.98532 17.6547 4.82469 18.0024 5.6999 18.0024H7.8791L6.1007 20.67C6.05697 20.7356 6.02658 20.8091 6.01127 20.8864C5.99595 20.9637 5.99602 21.0433 6.01145 21.1205C6.02688 21.1978 6.05738 21.2713 6.10122 21.3368C6.14505 21.4023 6.20135 21.4585 6.2669 21.5022C6.33246 21.546 6.40599 21.5763 6.48329 21.5917C6.56059 21.607 6.64015 21.6069 6.71742 21.5915C6.7947 21.576 6.86818 21.5455 6.93367 21.5017C6.99916 21.4579 7.05537 21.4016 7.0991 21.336L9.3215 18.0024H12.0143C12.0623 17.562 12.2159 17.1528 12.4499 16.8024H5.6999C5.14295 16.8024 4.6088 16.5812 4.21498 16.1873C3.82115 15.7935 3.5999 15.2594 3.5999 14.7024V6.90002C3.5999 5.74082 4.5407 4.80002 5.6999 4.80002H18.2999C19.4603 4.80002 20.3999 5.73962 20.3999 6.90002V10.5156C21.1355 11.1756 21.5987 12.132 21.5987 13.1976V13.2012H21.5999V6.90002C21.5999 6.02481 21.2522 5.18544 20.6334 4.56657C20.0145 3.9477 19.1751 3.60002 18.2999 3.60002H12.5999V3.00002ZM17.9999 10.7976C17.3634 10.7976 16.7529 11.0505 16.3028 11.5006C15.8528 11.9507 15.5999 12.5611 15.5999 13.1976C15.5999 13.8341 15.8528 14.4446 16.3028 14.8947C16.7529 15.3448 17.3634 15.5976 17.9999 15.5976C18.6364 15.5976 19.2469 15.3448 19.697 14.8947C20.147 14.4446 20.3999 13.8341 20.3999 13.1976C20.3999 12.5611 20.147 11.9507 19.697 11.5006C19.2469 11.0505 18.6364 10.7976 17.9999 10.7976ZM13.1999 18.2988C13.1999 17.4708 13.8719 16.7988 14.6999 16.7988H21.2999C22.1279 16.7988 22.7999 17.4708 22.7999 18.2988V18.4044C22.8054 18.5325 22.8014 18.6609 22.7879 18.7884C22.7217 19.3837 22.5076 19.953 22.1651 20.4444C21.5111 21.3804 20.2619 22.2 17.9999 22.2C15.7367 22.2 14.4875 21.3792 13.8323 20.4444C13.4902 19.9529 13.2766 19.3836 13.2107 18.7884C13.206 18.7457 13.2024 18.7029 13.1999 18.66C13.1975 18.5016 13.1975 18.4128 13.1975 18.3012V18.2976L13.1999 18.2988ZM6.5999 7.20122C6.44077 7.20122 6.28816 7.26444 6.17564 7.37696C6.06312 7.48948 5.9999 7.64209 5.9999 7.80122C5.9999 7.96035 6.06312 8.11297 6.17564 8.22549C6.28816 8.33801 6.44077 8.40122 6.5999 8.40122H10.1999C10.359 8.40122 10.5116 8.33801 10.6242 8.22549C10.7367 8.11297 10.7999 7.96035 10.7999 7.80122C10.7999 7.64209 10.7367 7.48948 10.6242 7.37696C10.5116 7.26444 10.359 7.20122 10.1999 7.20122H6.5999ZM5.9999 13.8C5.9999 13.6409 6.06312 13.4883 6.17564 13.3758C6.28816 13.2632 6.44077 13.2 6.5999 13.2H11.3999C11.559 13.2 11.7116 13.2632 11.8242 13.3758C11.9367 13.4883 11.9999 13.6409 11.9999 13.8C11.9999 13.9592 11.9367 14.1118 11.8242 14.2243C11.7116 14.3368 11.559 14.4 11.3999 14.4H6.5999C6.44077 14.4 6.28816 14.3368 6.17564 14.2243C6.06312 14.1118 5.9999 13.9592 5.9999 13.8ZM6.5999 10.2C6.44077 10.2 6.28816 10.2632 6.17564 10.3758C6.06312 10.4883 5.9999 10.6409 5.9999 10.8C5.9999 10.9592 6.06312 11.1118 6.17564 11.2243C6.28816 11.3368 6.44077 11.4 6.5999 11.4H12.5999C12.759 11.4 12.9116 11.3368 13.0242 11.2243C13.1367 11.1118 13.1999 10.9592 13.1999 10.8C13.1999 10.6409 13.1367 10.4883 13.0242 10.3758C12.9116 10.2632 12.759 10.2 12.5999 10.2H6.5999Z" fill="#C86F4C"/>
</svg>
